<?xml version="1.0" encoding="utf-8"?>
<!-- Generator: Adobe Illustrator 25.2.0, SVG Export Plug-In . SVG Version: 6.00 Build 0)  -->
<svg version="1.1" id="Calque_1" xmlns="http://www.w3.org/2000/svg" xmlns:xlink="http://www.w3.org/1999/xlink" x="0px" y="0px"
	 viewBox="0 0 60 60" style="enable-background:new 0 0 60 60;" xml:space="preserve">
<style type="text/css">
	.st0{fill:url(#SVGID_1_);}
	.st1{fill:#1B2E4B;}
	.st2{fill:#FFD664;}
</style>
<linearGradient id="SVGID_1_" gradientUnits="userSpaceOnUse" x1="11.9312" y1="31.4991" x2="48.0237" y2="31.4991">
	<stop  offset="0" style="stop-color:#B8E5FF"/>
	<stop  offset="1" style="stop-color:#85BEE2"/>
</linearGradient>
<path class="st0" d="M37.8,31.5c1.7,1.7,3.4,3.3,5.2,4.9c2,1.9,3.4,4.2,4.2,6.8c1.2,3.4,0.6,7.1,0.8,10.7c-1.5,0-3,0.1-4.5,0
	c-3.9-3.5-7.8-6.9-11.7-10.4c-0.2-0.2-0.3-0.4-0.3-0.6c0-4.2,0-8.5,0-12.7c0-2.2,0.5-4.5,2.2-6c2.3-2.2,4.7-4.3,6.8-6.6
	c0.9-1.3,1.3-2.8,1.4-4.3c0-0.3,0-0.3-0.3-0.3c-7.8,0-15.6,0-23.4,0c-0.6-0.2-0.2,0.8-0.2,1.3c1.1,6.6,10.7,8.5,10.4,15.7
	c-0.1,4.5,0.3,9.1-0.1,13.5c-3.9,3.5-7.9,7-11.8,10.5c-1.5,0-3,0-4.5,0c-0.5-12.5,1.3-14.3,10.2-22.5c1-0.8,1-2,0.1-2.9
	c-1.8-1.7-3.6-3.4-5.4-5.1C14,21,12.3,17.3,12,13.5c-0.1-1.5,0-3,0-4.6c12,0,24,0,36,0c0,1.5,0,3.1,0,4.6c-0.3,2.8-1.2,5.5-2.9,7.8
	c-2.3,2.6-5,4.7-7.4,7.2C36.8,29.5,36.8,30.7,37.8,31.5z"/>
<path class="st1" d="M48,9C36,9,24,9,12,9c0,0,0,0,0,0c0-1,0-1.9,0-2.9C12,6,11.9,6,11.8,6C9.9,5.9,7.6,6.5,6.4,4.5
	C5.2,2.6,6.7-0.1,9,0c3,0,6,0,9,0c11,0,22,0,33,0c2.3-0.1,3.9,2.6,2.6,4.5c-1.1,1.9-3.5,1.4-5.4,1.5C48.1,6,48,6,48,6.1
	C48,7.1,48,8,48,9L48,9z"/>
<path class="st1" d="M43.5,54c2.5,0.1,5,0,7.5,0c2.3-0.1,3.8,2.6,2.6,4.5C53,59.5,52.1,60,51,60C37,60,23,60,9,60
	c-1.1,0-2-0.6-2.6-1.5C5.2,56.6,6.7,54,9,54c2.5,0,5,0,7.5,0C25.5,54,34.5,54.1,43.5,54z"/>
<path class="st2" d="M43.5,54c-9,0.1-18,0-26.9,0c3.9-3.5,7.9-7,11.8-10.5c0.4-4.4,0-9,0.1-13.5c0.3-7.2-9.3-9.1-10.4-15.7
	c-0.1-0.4-0.1-0.8-0.1-1.1c0-0.2,0.1-0.2,0.3-0.2c7.8,0,15.6,0,23.4,0c0.3,0,0.3,0,0.3,0.3c-0.1,1.6-0.5,3-1.4,4.3
	c-2.1,2.4-4.5,4.4-6.8,6.6c-1.7,1.6-2.2,3.8-2.2,6c0,4.2,0,8.5,0,12.7c0,0.3,0.1,0.4,0.3,0.6C35.7,47,39.6,50.5,43.5,54z"/>
</svg>
